<svg width="24" height="24" viewBox="0 0 24 24" fill="none" xmlns="http://www.w3.org/2000/svg">
<g clip-path="url(#clip0_11_322)">
<path d="M17.994 2.28601C16.7734 1.19555 15.2786 0.458594 13.6703 0.154442C12.0621 -0.149711 10.4014 -0.00953966 8.86685 0.55987C7.33234 1.12928 5.98217 2.10637 4.96162 3.38598C3.94107 4.6656 3.2888 6.19929 3.07499 7.82201C2.88297 9.24486 3.03654 10.693 3.52271 12.044C4.00888 13.3949 4.81333 14.6088 5.86799 15.583C6.52019 16.1549 7.04647 16.8561 7.41347 17.6421C7.78048 18.4281 7.9802 19.2818 7.99999 20.149V20.31C8.00105 21.2883 8.39015 22.2263 9.08193 22.9181C9.77372 23.6098 10.7117 23.999 11.69 24H12.31C13.2883 23.999 14.2263 23.6098 14.918 22.9181C15.6098 22.2263 15.9989 21.2883 16 20.31V19.761C16.015 18.9945 16.1953 18.2402 16.5288 17.5498C16.8622 16.8595 17.3409 16.2493 17.932 15.761C18.8906 14.9215 19.6598 13.8878 20.1888 12.7285C20.7177 11.5692 20.9943 10.3107 21.0001 9.03648C21.006 7.76223 20.741 6.50128 20.2228 5.33717C19.7045 4.17305 18.9448 3.13235 17.994 2.28401V2.28601ZM12.31 22H11.69C11.2419 21.9995 10.8124 21.8213 10.4956 21.5044C10.1787 21.1876 10.0005 20.7581 9.99999 20.31C9.99999 20.31 9.99299 20.05 9.99199 20H14V20.31C13.9995 20.7581 13.8212 21.1876 13.5044 21.5044C13.1876 21.8213 12.758 21.9995 12.31 22ZM16.61 14.259C15.4714 15.2465 14.6492 16.5478 14.246 18H13V10.816C13.5829 10.6099 14.0879 10.2288 14.4459 9.72471C14.8039 9.22064 14.9974 8.61827 15 8.00001C15 7.73479 14.8946 7.48044 14.7071 7.2929C14.5196 7.10537 14.2652 7.00001 14 7.00001C13.7348 7.00001 13.4804 7.10537 13.2929 7.2929C13.1053 7.48044 13 7.73479 13 8.00001C13 8.26523 12.8946 8.51958 12.7071 8.70712C12.5196 8.89465 12.2652 9.00001 12 9.00001C11.7348 9.00001 11.4804 8.89465 11.2929 8.70712C11.1053 8.51958 11 8.26523 11 8.00001C11 7.73479 10.8946 7.48044 10.7071 7.2929C10.5196 7.10537 10.2652 7.00001 9.99999 7.00001C9.73477 7.00001 9.48042 7.10537 9.29288 7.2929C9.10535 7.48044 8.99999 7.73479 8.99999 8.00001C9.00255 8.61827 9.19607 9.22064 9.55408 9.72471C9.91208 10.2288 10.4171 10.6099 11 10.816V18H9.67799C9.22698 16.5092 8.38111 15.1682 7.22999 14.119C6.25294 13.2086 5.55671 12.0377 5.22346 10.7445C4.8902 9.45128 4.93383 8.08973 5.3492 6.8205C5.76456 5.55128 6.53433 4.42736 7.56766 3.58137C8.60098 2.73539 9.85475 2.20264 11.181 2.04601C11.4559 2.01532 11.7323 1.99996 12.009 2.00001C13.7266 1.9949 15.3847 2.62863 16.661 3.77801C17.4007 4.43761 17.9917 5.2469 18.3949 6.15224C18.7981 7.05757 19.0043 8.03827 18.9998 9.02933C18.9952 10.0204 18.7801 10.9992 18.3686 11.9008C17.9571 12.8024 17.3587 13.6062 16.613 14.259H16.61Z" fill="#4C5563"/>
</g>
<defs>
<clipPath id="clip0_11_322">
<rect width="24" height="24" fill="white"/>
</clipPath>
</defs>
</svg>
