<svg width="24" height="24" viewBox="0 0 24 24" fill="none" xmlns="http://www.w3.org/2000/svg">
<g clip-path="url(#clip0_11_343)">
<path d="M19 0H13.829C13.028 0 12.274 0.312 11.707 0.879L9.879 2.707C9.69 2.895 9.439 3 9.171 3H7V2C7 1.447 6.552 1 6 1C5.448 1 5 1.447 5 2V3C2.243 3 0 5.243 0 8V19C0 21.757 2.243 24 5 24H19C21.757 24 24 21.757 24 19V5C24 2.243 21.757 0 19 0ZM5 5H9.171C9.972 5 10.726 4.688 11.293 4.121L13.121 2.293C13.31 2.105 13.561 2 13.829 2H19C20.654 2 22 3.346 22 5V12H17.916C17.439 9.166 14.968 7 12 7C9.032 7 6.561 9.166 6.084 12H2V8C2 6.346 3.346 5 5 5ZM16 13C16 15.206 14.206 17 12 17C9.794 17 8 15.206 8 13C8 10.794 9.794 9 12 9C14.206 9 16 10.794 16 13ZM19 22H5C3.346 22 2 20.654 2 19V14H6.084C6.561 16.834 9.032 19 12 19C14.968 19 17.439 16.834 17.916 14H22V19C22 20.654 20.654 22 19 22Z" fill="#4C5563"/>
</g>
<defs>
<clipPath id="clip0_11_343">
<rect width="24" height="24" fill="white"/>
</clipPath>
</defs>
</svg>
