<svg width="24" height="24" viewBox="0 0 24 24" fill="none" xmlns="http://www.w3.org/2000/svg">
<g clip-path="url(#clip0_11_301)">
<path d="M15.583 8.558L11.581 2H13C13.2652 2 13.5196 1.89464 13.7071 1.70711C13.8946 1.51957 14 1.26522 14 1C14 0.734784 13.8946 0.48043 13.7071 0.292893C13.5196 0.105357 13.2652 0 13 0C13 0 9.643 0.005 9.53 0.037C8.82506 0.149848 8.18332 0.50999 7.71973 1.05292C7.25615 1.59584 7.001 2.28608 7 3V9H5.537L4.44 7.343C3.39 5.547 0.075 5.445 0 7.938V16.062C0.073 18.557 3.415 18.456 4.459 16.646L5.54 15H7V21C7.00093 21.7136 7.25579 22.4036 7.71897 22.9465C8.18216 23.4894 8.82342 23.8497 9.528 23.963C9.617 23.988 13 24 13 24C13.2652 24 13.5196 23.8946 13.7071 23.7071C13.8946 23.5196 14 23.2652 14 23C14 22.7348 13.8946 22.4804 13.7071 22.2929C13.5196 22.1054 13.2652 22 13 22H11.584L15.584 15.469C26.843 14.9 26.845 9.091 15.583 8.558ZM14.937 13.508C14.7768 13.5181 14.6214 13.5666 14.4838 13.6495C14.3463 13.7323 14.2308 13.8471 14.147 13.984L9.374 21.784C9.25672 21.6899 9.16218 21.5705 9.09743 21.4347C9.03268 21.299 8.99937 21.1504 9 21V14C9 13.7348 8.89464 13.4804 8.70711 13.2929C8.51957 13.1054 8.26522 13 8 13H5C4.83419 13 4.67097 13.0412 4.52503 13.1199C4.3791 13.1986 4.25503 13.3124 4.164 13.451L2.788 15.551C2.60049 15.816 2.31843 15.9989 2 16.062L1.938 8C2.1032 7.99997 2.26584 8.04088 2.41137 8.11905C2.55691 8.19723 2.68081 8.31025 2.772 8.448L4.172 10.548C4.26217 10.6857 4.38492 10.7989 4.52935 10.8778C4.67379 10.9566 4.83545 10.9986 5 11H8C8.26522 11 8.51957 10.8946 8.70711 10.7071C8.89464 10.5196 9 10.2652 9 10V3C9.00015 2.8507 9.03373 2.70333 9.09828 2.5687C9.16282 2.43408 9.25669 2.31561 9.373 2.222L14.146 10.042C14.23 10.1798 14.346 10.2953 14.4843 10.3785C14.6225 10.4618 14.7789 10.5103 14.94 10.52C18.078 10.708 21.267 11.393 21.934 12.001C21.27 12.611 18.079 13.309 14.937 13.508Z" fill="#4C5563"/>
</g>
<defs>
<clipPath id="clip0_11_301">
<rect width="24" height="24" fill="white"/>
</clipPath>
</defs>
</svg>
