<svg width="24" height="24" viewBox="0 0 24 24" fill="none" xmlns="http://www.w3.org/2000/svg">
<g clip-path="url(#clip0_11_350)">
<path d="M23.047 17.197L18.729 21.132C16.698 22.982 14.067 24 11.321 24H1C0.447 24 0 23.553 0 23C0 22.447 0.447 22 1 22H11.32C13.567 22 15.719 21.167 17.381 19.653L21.665 15.751C22.012 15.403 22.095 14.807 21.821 14.427C21.641 14.178 21.379 14.028 21.081 14.003C20.79 13.984 20.501 14.085 20.293 14.293L16.059 18.179C15.521 18.687 14.797 19 14 19H9C8.447 19 8 18.553 8 18C8 17.447 8.447 17 9 17H14C14.252 17 15 16.885 15 16C15 15.448 14.552 15 14 15H9.088C6.685 15 4.424 15.937 2.724 17.636L1.726 18.689C1.529 18.896 1.265 19.001 1 19.001C0.753 19.001 0.505 18.91 0.312 18.727C-0.088 18.346 -0.105 17.713 0.275 17.313L1.292 16.242C3.389 14.146 6.151 13.002 9.089 13.002H14.001C15.237 13.002 16.301 13.754 16.76 14.824L18.911 12.85C19.502 12.257 20.367 11.935 21.242 12.011C22.122 12.081 22.925 12.536 23.445 13.259C24.289 14.433 24.118 16.125 23.048 17.198L23.047 17.197ZM4.006 2.16201C3.964 1.58101 4.178 1.00901 4.594 0.594012C5.009 0.178012 5.581 -0.0399879 6.163 0.00601215C9.04 0.209012 10.948 1.20101 12 3.11801C13.053 1.20101 14.96 0.209012 17.838 0.00601215C18.429 -0.0419879 18.992 0.178012 19.406 0.594012C19.822 1.00901 20.036 1.58101 19.994 2.16301C19.683 6.57601 17.514 8.70801 13 8.97101V9.99901C13 10.552 12.553 10.999 12 10.999C11.447 10.999 11 10.552 11 9.99901V8.97101C6.486 8.70701 4.317 6.57601 4.006 2.16201ZM13.032 6.96801C16.393 6.74401 17.766 5.33101 18 2.02201C14.671 2.23601 13.256 3.60701 13.032 6.96801ZM6.021 2.00001C6.235 5.32901 7.606 6.74401 10.967 6.96801C10.743 3.60701 9.33 2.23401 6.021 2.00001Z" fill="#4C5563"/>
</g>
<defs>
<clipPath id="clip0_11_350">
<rect width="24" height="24" fill="white"/>
</clipPath>
</defs>
</svg>
