<svg width="24" height="24" viewBox="0 0 24 24" fill="none" xmlns="http://www.w3.org/2000/svg">
<g clip-path="url(#clip0_11_294)">
<path d="M24 7.5C24.0026 6.1067 23.6164 4.7403 22.8847 3.55457C22.1531 2.36883 21.105 1.41082 19.8585 0.788343C18.6119 0.165861 17.2164 -0.0963882 15.829 0.0311051C14.4415 0.158598 13.1172 0.670775 12.005 1.51C11.106 0.832155 10.066 0.365404 8.96198 0.144368C7.85801 -0.0766686 6.71843 -0.0463185 5.62779 0.233167C4.53715 0.512652 3.52342 1.0341 2.66181 1.75883C1.80019 2.48357 1.1128 3.39299 0.650622 4.41963C0.188442 5.44628 -0.0366667 6.56381 -0.00800635 7.68933C0.020654 8.81485 0.302348 9.91948 0.81618 10.9213C1.33001 11.9231 2.0628 12.7963 2.96018 13.4763C3.85756 14.1562 4.89651 14.6254 5.99997 14.849V19H3.99997C3.73475 19 3.4804 19.1054 3.29286 19.2929C3.10533 19.4804 2.99997 19.7348 2.99997 20C2.99997 20.2652 3.10533 20.5196 3.29286 20.7071C3.4804 20.8946 3.73475 21 3.99997 21H5.99997V23C5.99997 23.2652 6.10533 23.5196 6.29286 23.7071C6.4804 23.8946 6.73475 24 6.99997 24C7.26519 24 7.51954 23.8946 7.70708 23.7071C7.89461 23.5196 7.99997 23.2652 7.99997 23V21H9.99997C10.2652 21 10.5195 20.8946 10.7071 20.7071C10.8946 20.5196 11 20.2652 11 20C11 19.7348 10.8946 19.4804 10.7071 19.2929C10.5195 19.1054 10.2652 19 9.99997 19H7.99997V14.976C9.4515 14.8827 10.8439 14.3661 12.005 13.49C13.1638 14.3632 14.5522 14.8793 16 14.975V19H14C13.7348 19 13.4804 19.1054 13.2929 19.2929C13.1053 19.4804 13 19.7348 13 20C13 20.2652 13.1053 20.5196 13.2929 20.7071C13.4804 20.8946 13.7348 21 14 21H16V23C16 23.2652 16.1053 23.5196 16.2929 23.7071C16.4804 23.8946 16.7348 24 17 24C17.2652 24 17.5195 23.8946 17.7071 23.7071C17.8946 23.5196 18 23.2652 18 23V21H20C20.2652 21 20.5195 20.8946 20.7071 20.7071C20.8946 20.5196 21 20.2652 21 20C21 19.7348 20.8946 19.4804 20.7071 19.2929C20.5195 19.1054 20.2652 19 20 19H18V14.849C19.6927 14.501 21.2137 13.58 22.3067 12.2414C23.3996 10.9027 23.9977 9.22816 24 7.5ZM22 7.5C22 8.5878 21.6774 9.65117 21.0731 10.5556C20.4687 11.4601 19.6097 12.1651 18.6047 12.5813C17.5997 12.9976 16.4939 13.1065 15.427 12.8943C14.3601 12.6821 13.3801 12.1583 12.6109 11.3891C11.8417 10.6199 11.3179 9.63989 11.1057 8.573C10.8934 7.5061 11.0024 6.40023 11.4186 5.39524C11.8349 4.39025 12.5399 3.53126 13.4443 2.92692C14.3488 2.32257 15.4122 2 16.5 2C17.9582 2.00159 19.3562 2.58156 20.3873 3.61267C21.4184 4.64377 21.9984 6.0418 22 7.5ZM1.99997 7.5C1.99822 6.50297 2.26802 5.52429 2.78041 4.669C3.2928 3.81371 4.02843 3.1141 4.90834 2.64525C5.78826 2.17641 6.77924 1.95604 7.77492 2.00779C8.77061 2.05954 9.7334 2.38146 10.56 2.939C9.5488 4.24439 9.00009 5.84879 9.00009 7.5C9.00009 9.15121 9.5488 10.7556 10.56 12.061C9.7334 12.6185 8.77061 12.9405 7.77492 12.9922C6.77924 13.044 5.78826 12.8236 4.90834 12.3547C4.02843 11.8859 3.2928 11.1863 2.78041 10.331C2.26802 9.47571 1.99822 8.49703 1.99997 7.5Z" fill="#4C5563"/>
</g>
<defs>
<clipPath id="clip0_11_294">
<rect width="24" height="24" fill="white"/>
</clipPath>
</defs>
</svg>
