<svg width="16" height="16" viewBox="0 0 16 16" fill="none" xmlns="http://www.w3.org/2000/svg">
<g clip-path="url(#clip0_11_290)">
<path d="M4.66666 16C4.57892 16.0005 4.49194 15.9837 4.41072 15.9506C4.32949 15.9174 4.25562 15.8685 4.19332 15.8067C4.13084 15.7447 4.08124 15.671 4.0474 15.5898C4.01355 15.5085 3.99612 15.4214 3.99612 15.3334C3.99612 15.2454 4.01355 15.1582 4.0474 15.077C4.08124 14.9958 4.13084 14.922 4.19332 14.86L9.63999 9.41338C10.0145 9.03837 10.2249 8.53004 10.2249 8.00004C10.2249 7.47004 10.0145 6.96171 9.63999 6.58671L4.19332 1.14004C4.06779 1.01451 3.99726 0.844243 3.99726 0.666709C3.99726 0.489174 4.06779 0.318911 4.19332 0.193376C4.31886 0.0678397 4.48912 -0.00268555 4.66666 -0.00268555C4.84419 -0.00268555 5.01445 0.0678397 5.13999 0.193376L10.5867 5.64004C10.8971 5.94968 11.1434 6.31752 11.3114 6.72248C11.4794 7.12745 11.5659 7.56159 11.5659 8.00004C11.5659 8.43849 11.4794 8.87263 11.3114 9.2776C11.1434 9.68257 10.8971 10.0504 10.5867 10.36L5.13999 15.8067C5.0777 15.8685 5.00382 15.9174 4.92259 15.9506C4.84137 15.9837 4.75439 16.0005 4.66666 16Z" fill="#1A1A1A"/>
</g>
<defs>
<clipPath id="clip0_11_290">
<rect width="16" height="16" fill="white"/>
</clipPath>
</defs>
</svg>
