<svg width="20" height="21" viewBox="0 0 20 21" fill="none" xmlns="http://www.w3.org/2000/svg">
<path d="M15.4921 9.04267L10.8338 13.6927C10.6776 13.8479 10.4664 13.935 10.2463 13.935C10.0261 13.935 9.81489 13.8479 9.65875 13.6927L5.00042 9.04267C4.8829 8.92611 4.80274 8.77719 4.77019 8.6149C4.73763 8.45261 4.75414 8.28431 4.81761 8.13144C4.88108 7.97857 4.98864 7.84806 5.12658 7.75656C5.26451 7.66506 5.42657 7.61671 5.59209 7.61767L14.9004 7.61767C15.0659 7.61671 15.228 7.66506 15.3659 7.75656C15.5039 7.84806 15.6114 7.97857 15.6749 8.13144C15.7384 8.28431 15.7549 8.45261 15.7223 8.6149C15.6898 8.77719 15.6096 8.92611 15.4921 9.04267Z" fill="#959595"/>
</svg>
