<svg width="21" height="21" viewBox="0 0 21 21" fill="none" xmlns="http://www.w3.org/2000/svg">
<g clip-path="url(#clip0_215_2249)">
<path d="M6.33366 20.1177C7.25413 20.1177 8.00033 19.3715 8.00033 18.451C8.00033 17.5306 7.25413 16.7844 6.33366 16.7844C5.41318 16.7844 4.66699 17.5306 4.66699 18.451C4.66699 19.3715 5.41318 20.1177 6.33366 20.1177Z" fill="white"/>
<path d="M14.6667 20.1177C15.5871 20.1177 16.3333 19.3715 16.3333 18.451C16.3333 17.5306 15.5871 16.7844 14.6667 16.7844C13.7462 16.7844 13 17.5306 13 18.451C13 19.3715 13.7462 20.1177 14.6667 20.1177Z" fill="white"/>
<path d="M19.6663 2.61768H17.9997V0.951009C17.9997 0.729995 17.9119 0.518034 17.7556 0.361753C17.5993 0.205473 17.3874 0.117676 17.1663 0.117676C16.9453 0.117676 16.7334 0.205473 16.5771 0.361753C16.4208 0.518034 16.333 0.729995 16.333 0.951009V2.61768H14.6663C14.4453 2.61768 14.2334 2.70547 14.0771 2.86175C13.9208 3.01803 13.833 3.23 13.833 3.45101C13.833 3.67202 13.9208 3.88398 14.0771 4.04026C14.2334 4.19655 14.4453 4.28434 14.6663 4.28434H16.333V5.95101C16.333 6.17202 16.4208 6.38398 16.5771 6.54027C16.7334 6.69655 16.9453 6.78434 17.1663 6.78434C17.3874 6.78434 17.5993 6.69655 17.7556 6.54027C17.9119 6.38398 17.9997 6.17202 17.9997 5.95101V4.28434H19.6663C19.8874 4.28434 20.0993 4.19655 20.2556 4.04026C20.4119 3.88398 20.4997 3.67202 20.4997 3.45101C20.4997 3.23 20.4119 3.01803 20.2556 2.86175C20.0993 2.70547 19.8874 2.61768 19.6663 2.61768Z" fill="white"/>
<path d="M18.6425 8.22268C18.5348 8.20251 18.4241 8.20394 18.3169 8.22687C18.2097 8.2498 18.1081 8.29377 18.018 8.35625C17.928 8.41873 17.8512 8.49846 17.7922 8.59083C17.7331 8.68319 17.693 8.78636 17.6742 8.89434C17.5702 9.47114 17.267 9.99308 16.8173 10.369C16.3677 10.7449 15.8003 10.9509 15.2142 10.951H5.015L4.23167 4.28434H11.3333C11.5543 4.28434 11.7663 4.19655 11.9226 4.04026C12.0789 3.88398 12.1667 3.67202 12.1667 3.45101C12.1667 3.23 12.0789 3.01803 11.9226 2.86175C11.7663 2.70547 11.5543 2.61768 11.3333 2.61768H4.035L4 2.32434C3.92818 1.71651 3.63588 1.15614 3.17849 0.749429C2.7211 0.342721 2.1304 0.117936 1.51833 0.117676L1.33333 0.117676C1.11232 0.117676 0.900358 0.205473 0.744078 0.361753C0.587797 0.518034 0.5 0.729995 0.5 0.951009C0.5 1.17202 0.587797 1.38398 0.744078 1.54026C0.900358 1.69655 1.11232 1.78434 1.33333 1.78434H1.51833C1.72244 1.78437 1.91945 1.85931 2.07198 1.99494C2.22451 2.13057 2.32195 2.31747 2.34583 2.52018L3.4925 12.2702C3.61154 13.2842 4.09873 14.2192 4.86159 14.8977C5.62445 15.5762 6.60988 15.951 7.63083 15.951H16.3333C16.5543 15.951 16.7663 15.8632 16.9226 15.7069C17.0789 15.5507 17.1667 15.3387 17.1667 15.1177C17.1667 14.8967 17.0789 14.6847 16.9226 14.5284C16.7663 14.3721 16.5543 14.2843 16.3333 14.2843H7.63083C7.11377 14.2844 6.60939 14.1242 6.18718 13.8257C5.76496 13.5272 5.44569 13.1052 5.27333 12.6177H15.2142C16.191 12.6178 17.1367 12.2747 17.8863 11.6484C18.6358 11.022 19.1415 10.1523 19.315 9.19101C19.3345 9.08327 19.3325 8.97274 19.3092 8.86576C19.286 8.75877 19.2419 8.65742 19.1794 8.56749C19.1169 8.47756 19.0374 8.40082 18.9453 8.34166C18.8531 8.28249 18.7503 8.24206 18.6425 8.22268Z" fill="white"/>
</g>
<defs>
<clipPath id="clip0_215_2249">
<rect width="20" height="20" fill="white" transform="translate(0.5 0.117676)"/>
</clipPath>
</defs>
</svg>
