<svg width="14" height="14" viewBox="0 0 14 14" fill="none" xmlns="http://www.w3.org/2000/svg">
<path d="M13.0001 0.882325C12.8125 0.694854 12.5582 0.589539 12.2931 0.589539C12.0279 0.589539 11.7736 0.694854 11.5861 0.882325L7.00006 5.46833L2.41406 0.882325C2.22653 0.694854 1.97223 0.589539 1.70706 0.589539C1.4419 0.589539 1.18759 0.694854 1.00006 0.882325C0.812591 1.06985 0.707275 1.32416 0.707275 1.58933C0.707275 1.85449 0.812591 2.1088 1.00006 2.29633L5.58606 6.88233L1.00006 11.4683C0.812591 11.6559 0.707275 11.9102 0.707275 12.1753C0.707275 12.4405 0.812591 12.6948 1.00006 12.8823C1.18759 13.0698 1.4419 13.1751 1.70706 13.1751C1.97223 13.1751 2.22653 13.0698 2.41406 12.8823L7.00006 8.29633L11.5861 12.8823C11.7736 13.0698 12.0279 13.1751 12.2931 13.1751C12.5582 13.1751 12.8125 13.0698 13.0001 12.8823C13.1875 12.6948 13.2928 12.4405 13.2928 12.1753C13.2928 11.9102 13.1875 11.6559 13.0001 11.4683L8.41406 6.88233L13.0001 2.29633C13.1875 2.1088 13.2928 1.85449 13.2928 1.58933C13.2928 1.32416 13.1875 1.06985 13.0001 0.882325Z" fill="#959595"/>
</svg>
