<svg width="48" height="49" viewBox="0 0 48 49" fill="none" xmlns="http://www.w3.org/2000/svg">
<path d="M23.9999 31.8823C22.1434 31.8823 20.3629 31.1448 19.0502 29.8321C17.7374 28.5193 16.9999 26.7388 16.9999 24.8823C16.9999 23.0258 17.7374 21.2453 19.0502 19.9326C20.3629 18.6198 22.1434 17.8823 23.9999 17.8823C25.8564 17.8823 27.6369 18.6198 28.9497 19.9326C30.2624 21.2453 30.9999 23.0258 30.9999 24.8823C30.9999 26.7388 30.2624 28.5193 28.9497 29.8321C27.6369 31.1448 25.8564 31.8823 23.9999 31.8823ZM38.8599 26.8223C38.9399 26.1823 38.9999 25.5423 38.9999 24.8823C38.9999 24.2223 38.9399 23.5623 38.8599 22.8823L43.0799 19.6223C43.4599 19.3223 43.5599 18.7823 43.3199 18.3423L39.3199 11.4223C39.0799 10.9823 38.5399 10.8023 38.0999 10.9823L33.1199 12.9823C32.0799 12.2023 30.9999 11.5223 29.7399 11.0223L28.9999 5.72232C28.9199 5.24232 28.4999 4.88232 27.9999 4.88232H19.9999C19.4999 4.88232 19.0799 5.24232 18.9999 5.72232L18.2599 11.0223C16.9999 11.5223 15.9199 12.2023 14.8799 12.9823L9.89992 10.9823C9.45992 10.8023 8.91992 10.9823 8.67992 11.4223L4.67992 18.3423C4.41992 18.7823 4.53992 19.3223 4.91992 19.6223L9.13992 22.8823C9.05992 23.5623 8.99992 24.2223 8.99992 24.8823C8.99992 25.5423 9.05992 26.1823 9.13992 26.8223L4.91992 30.1423C4.53992 30.4423 4.41992 30.9823 4.67992 31.4223L8.67992 38.3423C8.91992 38.7823 9.45992 38.9423 9.89992 38.7823L14.8799 36.7623C15.9199 37.5623 16.9999 38.2423 18.2599 38.7423L18.9999 44.0423C19.0799 44.5223 19.4999 44.8823 19.9999 44.8823H27.9999C28.4999 44.8823 28.9199 44.5223 28.9999 44.0423L29.7399 38.7423C30.9999 38.2223 32.0799 37.5623 33.1199 36.7623L38.0999 38.7823C38.5399 38.9423 39.0799 38.7823 39.3199 38.3423L43.3199 31.4223C43.5599 30.9823 43.4599 30.4423 43.0799 30.1423L38.8599 26.8223Z" fill="#AB0000"/>
</svg>
