<svg width="20" height="21" viewBox="0 0 20 21" fill="none" xmlns="http://www.w3.org/2000/svg">
<g clip-path="url(#clip0_215_2326)">
<path d="M20 9.49023C19.8794 7.54025 19.1909 5.66815 18.0193 4.10475C16.8477 2.54134 15.2441 1.35497 13.4064 0.69189C11.5687 0.0288088 9.57705 -0.0819943 7.6771 0.373141C5.77715 0.828276 4.05192 1.82945 2.71409 3.25324C1.37626 4.67703 0.484331 6.4612 0.148249 8.38578C-0.187833 10.3104 0.0466277 12.2912 0.822728 14.0842C1.59883 15.8771 2.88264 17.4037 4.51589 18.4759C6.14914 19.548 8.06043 20.1187 10.0141 20.1177H15.8333C16.938 20.1166 17.9972 19.6773 18.7784 18.8961C19.5595 18.115 19.9989 17.0558 20 15.9511V9.49023ZM18.3333 15.9511C18.3333 16.6141 18.0699 17.25 17.6011 17.7188C17.1322 18.1877 16.4963 18.4511 15.8333 18.4511H10.0141C8.83824 18.4505 7.67567 18.2022 6.60221 17.7222C5.52876 17.2421 4.56853 16.5413 3.78413 15.6652C2.99594 14.7896 2.40407 13.7556 2.04821 12.6326C1.69235 11.5095 1.58071 10.3233 1.7208 9.15356C1.94199 7.30851 2.77095 5.58955 4.077 4.26766C5.38304 2.94578 7.09188 2.09615 8.93413 1.85273C9.29349 1.80769 9.65529 1.78487 10.0175 1.78439C11.9595 1.7791 13.8415 2.45765 15.3333 3.70106C16.2046 4.42518 16.9197 5.31869 17.4354 6.32742C17.9511 7.33615 18.2566 8.4391 18.3333 9.5694V15.9511Z" fill="black"/>
<path d="M6.66634 7.61773H9.99967C10.2207 7.61773 10.4326 7.52993 10.5889 7.37365C10.7452 7.21737 10.833 7.00541 10.833 6.78439C10.833 6.56338 10.7452 6.35142 10.5889 6.19514C10.4326 6.03886 10.2207 5.95106 9.99967 5.95106H6.66634C6.44533 5.95106 6.23337 6.03886 6.07709 6.19514C5.92081 6.35142 5.83301 6.56338 5.83301 6.78439C5.83301 7.00541 5.92081 7.21737 6.07709 7.37365C6.23337 7.52993 6.44533 7.61773 6.66634 7.61773Z" fill="black"/>
<path d="M13.333 9.28439H6.66634C6.44533 9.28439 6.23337 9.37219 6.07709 9.52847C5.92081 9.68475 5.83301 9.89671 5.83301 10.1177C5.83301 10.3387 5.92081 10.5507 6.07709 10.707C6.23337 10.8633 6.44533 10.9511 6.66634 10.9511H13.333C13.554 10.9511 13.766 10.8633 13.9223 10.707C14.0785 10.5507 14.1663 10.3387 14.1663 10.1177C14.1663 9.89671 14.0785 9.68475 13.9223 9.52847C13.766 9.37219 13.554 9.28439 13.333 9.28439Z" fill="black"/>
<path d="M13.333 12.6177H6.66634C6.44533 12.6177 6.23337 12.7055 6.07709 12.8618C5.92081 13.0181 5.83301 13.23 5.83301 13.4511C5.83301 13.6721 5.92081 13.884 6.07709 14.0403C6.23337 14.1966 6.44533 14.2844 6.66634 14.2844H13.333C13.554 14.2844 13.766 14.1966 13.9223 14.0403C14.0785 13.884 14.1663 13.6721 14.1663 13.4511C14.1663 13.23 14.0785 13.0181 13.9223 12.8618C13.766 12.7055 13.554 12.6177 13.333 12.6177Z" fill="black"/>
</g>
<defs>
<clipPath id="clip0_215_2326">
<rect width="20" height="20" fill="white" transform="translate(0 0.117727)"/>
</clipPath>
</defs>
</svg>
