<svg width="20" height="21" viewBox="0 0 20 21" fill="none" xmlns="http://www.w3.org/2000/svg">
<g clip-path="url(#clip0_215_2224)">
<path d="M10.8337 16.7843C11.9383 16.783 12.9974 16.3436 13.7785 15.5625C14.5596 14.7814 14.999 13.7223 15.0003 12.6177V5.32018C15.0016 4.88214 14.916 4.44821 14.7483 4.04352C14.5807 3.63884 14.3343 3.27146 14.0237 2.96268L12.1553 1.09434C11.8465 0.783653 11.4792 0.537344 11.0745 0.369692C10.6698 0.20204 10.2359 0.116379 9.79783 0.117675H5.83366C4.729 0.118998 3.66996 0.55841 2.88884 1.33952C2.10773 2.12064 1.66832 3.17968 1.66699 4.28434V12.6177C1.66832 13.7223 2.10773 14.7814 2.88884 15.5625C3.66996 16.3436 4.729 16.783 5.83366 16.7843H10.8337ZM3.33366 12.6177V4.28434C3.33366 3.6213 3.59705 2.98542 4.06589 2.51657C4.53473 2.04773 5.17062 1.78434 5.83366 1.78434C5.83366 1.78434 9.93283 1.79601 10.0003 1.80434V3.45101C10.0003 3.89304 10.1759 4.31696 10.4885 4.62952C10.801 4.94208 11.225 5.11768 11.667 5.11768H13.3137C13.322 5.18517 13.3337 12.6177 13.3337 12.6177C13.3337 13.2807 13.0703 13.9166 12.6014 14.3854C12.1326 14.8543 11.4967 15.1177 10.8337 15.1177H5.83366C5.17062 15.1177 4.53473 14.8543 4.06589 14.3854C3.59705 13.9166 3.33366 13.2807 3.33366 12.6177ZM18.3337 6.78434V15.951C18.3323 17.0557 17.8929 18.1147 17.1118 18.8958C16.3307 19.6769 15.2717 20.1164 14.167 20.1177H6.66699C6.44598 20.1177 6.23402 20.0299 6.07774 19.8736C5.92146 19.7173 5.83366 19.5054 5.83366 19.2843C5.83366 19.0633 5.92146 18.8514 6.07774 18.6951C6.23402 18.5388 6.44598 18.451 6.66699 18.451H14.167C14.83 18.451 15.4659 18.1876 15.9348 17.7188C16.4036 17.2499 16.667 16.614 16.667 15.951V6.78434C16.667 6.56333 16.7548 6.35137 16.9111 6.19509C17.0674 6.03881 17.2793 5.95101 17.5003 5.95101C17.7213 5.95101 17.9333 6.03881 18.0896 6.19509C18.2459 6.35137 18.3337 6.56333 18.3337 6.78434Z" fill="#AB0000"/>
</g>
<defs>
<clipPath id="clip0_215_2224">
<rect width="20" height="20" fill="white" transform="translate(0 0.117676)"/>
</clipPath>
</defs>
</svg>
