<svg width="20" height="21" viewBox="0 0 20 21" fill="none" xmlns="http://www.w3.org/2000/svg">
<path d="M19.6842 5.81443L18.5576 3.45943C18.2667 2.8511 17.7326 2.37943 17.0926 2.1661L11.8451 0.416931C10.6551 0.0202639 9.34507 0.0202639 8.15507 0.416931L2.9084 2.1661C2.26757 2.37943 1.7334 2.85193 1.44257 3.4611L0.370902 5.71693C-0.0265984 6.37693 -0.101598 7.1686 0.165068 7.8911C0.422568 8.5911 0.968402 9.13276 1.66674 9.38776L1.66257 14.6494C1.6609 16.4478 2.8059 18.0378 4.5109 18.6061L8.1484 19.8186C8.7434 20.0169 9.3684 20.1161 9.9934 20.1161C10.6184 20.1161 11.2434 20.0169 11.8384 19.8186L15.4792 18.6044C17.1817 18.0369 18.3267 16.4503 18.3284 14.6553L18.3326 9.3886C19.0376 9.1411 19.5892 8.60026 19.8484 7.89693C20.1126 7.18193 20.0392 6.39776 19.6842 5.81443ZM8.68257 1.9986C9.53257 1.71526 10.4684 1.71526 11.3176 1.9986L14.8576 3.1786L10.0059 4.8036L5.14424 3.1786L8.68257 1.9986ZM1.83674 6.5061L2.94257 4.18776C2.98257 4.2086 8.8234 6.16526 8.8234 6.16526L7.47257 8.88026C7.2734 9.21193 6.86007 9.36526 6.49507 9.24193L2.2609 7.8311C2.0134 7.7486 1.81923 7.56026 1.7284 7.31526C1.63757 7.07026 1.6634 6.80193 1.8359 6.50693L1.83674 6.5061ZM5.03757 17.0253C4.01424 16.6844 3.32757 15.7303 3.3284 14.6519L3.33257 9.94526L5.96757 10.8236C7.08757 11.1969 8.29424 10.7511 8.9334 9.6811L9.16507 9.21693L9.1609 18.3678C8.99673 18.3344 8.83507 18.2919 8.67673 18.2386L5.0384 17.0261L5.03757 17.0253ZM14.9517 17.0244L11.3101 18.2386C11.1517 18.2911 10.9901 18.3344 10.8259 18.3678L10.8301 9.20526L11.0959 9.7386C11.5592 10.5119 12.3726 10.9544 13.2301 10.9544C13.4959 10.9544 13.7659 10.9119 14.0301 10.8236L16.6642 9.9461L16.6601 14.6553C16.6601 15.7319 15.9717 16.6844 14.9501 17.0253L14.9517 17.0244ZM18.2851 7.3211C18.1976 7.5586 18.0092 7.7411 17.7692 7.8211L13.5042 9.24276C13.1392 9.36526 12.7259 9.2136 12.5576 8.9386L11.1784 6.16943C11.1784 6.16943 17.0167 4.21026 17.0567 4.1886L18.2176 6.6061C18.3484 6.8236 18.3726 7.08443 18.2851 7.32193V7.3211Z" fill="black"/>
</svg>
