<svg width="73" height="72" viewBox="0 0 73 72" fill="none" xmlns="http://www.w3.org/2000/svg">
<path d="M66.5 32.7599L58.28 27.9899C66.2 21.2399 58.25 8.6399 48.74 12.9299L46.13 14.0399L45.8 11.1599C45.5 7.9199 43.82 5.6099 41.6 4.2599C36.68 1.4009 29.18 3.3599 27.98 10.4999L19.73 5.7599C16.85 4.0799 13.19 5.0699 11.54 7.9499L8.54 13.1399C7.7 14.5799 8.21 16.4099 9.65 17.2499L33.02 30.7499L37.52 22.9499L42.71 25.9499L38.21 33.7499L61.58 47.2499C63.02 47.9999 64.88 47.5799 65.69 46.1399L68.69 40.9499C70.34 38.0699 69.38 34.4099 66.5 32.7599ZM37.61 14.9999C35 15.7499 32.9 12.9599 34.22 10.6499C35 9.2099 36.89 8.7299 38.33 9.5399C40.64 10.8899 40.19 14.3699 37.61 14.9999ZM53.18 23.9999C50.6 24.7499 48.5 21.9599 49.82 19.6499C50.63 18.2099 52.49 17.7299 53.9 18.5399C56.21 19.8899 55.76 23.3699 53.18 23.9999ZM63.11 50.6399C64.34 50.6399 65.51 50.2199 66.5 49.4999V59.9999C66.5 63.3299 63.83 65.9999 60.5 65.9999H12.5C9.2 65.9999 6.5 63.3299 6.5 59.9999V32.9999H30.95L33.5 34.4999V59.9999H39.5V37.9499L60.11 49.8299C61.01 50.3699 62 50.6399 63.11 50.6399Z" fill="white"/>
</svg>
