<svg width="24" height="25" viewBox="0 0 24 25" fill="none" xmlns="http://www.w3.org/2000/svg">
<g clip-path="url(#clip0_215_164)">
<path d="M17.5 1.03485C16.3739 1.05237 15.2724 1.3667 14.3067 1.94612C13.341 2.52554 12.5453 3.34952 12 4.33485C11.4546 3.34952 10.6589 2.52554 9.6932 1.94612C8.7275 1.3667 7.62601 1.05237 6.49996 1.03485C4.7049 1.11284 3.01366 1.89811 1.79574 3.21908C0.577818 4.54006 -0.0677922 6.28938 -4.17093e-05 8.08485C-4.17093e-05 14.8599 10.956 22.6849 11.422 23.0169L12 23.4259L12.578 23.0169C13.044 22.6869 24 14.8599 24 8.08485C24.0677 6.28938 23.4221 4.54006 22.2042 3.21908C20.9863 1.89811 19.295 1.11284 17.5 1.03485ZM12 20.9639C8.74696 18.5339 1.99996 12.5639 1.99996 8.08485C1.9316 6.81957 2.36632 5.57858 3.20932 4.63255C4.05232 3.68652 5.23519 3.1122 6.49996 3.03485C7.76472 3.1122 8.9476 3.68652 9.7906 4.63255C10.6336 5.57858 11.0683 6.81957 11 8.08485H13C12.9316 6.81957 13.3663 5.57858 14.2093 4.63255C15.0523 3.68652 16.2352 3.1122 17.5 3.03485C18.7647 3.1122 19.9476 3.68652 20.7906 4.63255C21.6336 5.57858 22.0683 6.81957 22 8.08485C22 12.5659 15.253 18.5339 12 20.9639Z" fill="#AB0000"/>
</g>
<defs>
<clipPath id="clip0_215_164">
<rect width="24" height="24" fill="white" transform="translate(0 0.117859)"/>
</clipPath>
</defs>
</svg>
