<svg width="24" height="25" viewBox="0 0 24 25" fill="none" xmlns="http://www.w3.org/2000/svg">
<g clip-path="url(#clip0_215_2499)">
<path d="M17.5 1.03467C16.3739 1.05218 15.2724 1.36652 14.3067 1.94594C13.341 2.52536 12.5453 3.34934 12 4.33467C11.4546 3.34934 10.6589 2.52536 9.6932 1.94594C8.7275 1.36652 7.62601 1.05218 6.49996 1.03467C4.7049 1.11266 3.01366 1.89792 1.79574 3.2189C0.577818 4.53988 -0.0677922 6.28919 -4.17093e-05 8.08467C-4.17093e-05 14.8597 10.956 22.6847 11.422 23.0167L12 23.4257L12.578 23.0167C13.044 22.6867 24 14.8597 24 8.08467C24.0677 6.28919 23.4221 4.53988 22.2042 3.2189C20.9863 1.89792 19.295 1.11266 17.5 1.03467Z" fill="#AB0000"/>
</g>
<defs>
<clipPath id="clip0_215_2499">
<rect width="24" height="24" fill="white" transform="translate(0 0.117676)"/>
</clipPath>
</defs>
</svg>
