<svg width="16" height="16" viewBox="0 0 16 16" fill="none" xmlns="http://www.w3.org/2000/svg">
<path d="M7.05992 8.93992C7.33326 9.19992 7.33326 9.62659 7.05992 9.88659C6.79992 10.1466 6.37326 10.1466 6.11326 9.88659C4.81326 8.58659 4.81326 6.47326 6.11326 5.17326L8.47326 2.81326C9.77326 1.51326 11.8866 1.51326 13.1866 2.81326C14.4866 4.11326 14.4866 6.22659 13.1866 7.52659L12.1933 8.51992C12.1999 7.97326 12.1133 7.42659 11.9266 6.90659L12.2399 6.58659C13.0266 5.80659 13.0266 4.53992 12.2399 3.75992C11.4599 2.97326 10.1933 2.97326 9.41326 3.75992L7.05992 6.11326C6.27326 6.89326 6.27326 8.15992 7.05992 8.93992ZM8.93992 6.11326C9.19992 5.85326 9.62659 5.85326 9.88659 6.11326C11.1866 7.41326 11.1866 9.52659 9.88659 10.8266L7.52659 13.1866C6.22659 14.4866 4.11326 14.4866 2.81326 13.1866C1.51326 11.8866 1.51326 9.77326 2.81326 8.47326L3.80659 7.47992C3.79992 8.02659 3.88659 8.57326 4.07326 9.09992L3.75992 9.41326C2.97326 10.1933 2.97326 11.4599 3.75992 12.2399C4.53992 13.0266 5.80659 13.0266 6.58659 12.2399L8.93992 9.88659C9.72659 9.10659 9.72659 7.83992 8.93992 7.05992C8.66659 6.79992 8.66659 6.37326 8.93992 6.11326Z" fill="white"/>
</svg>
