<svg width="11" height="11" viewBox="0 0 11 11" fill="none" xmlns="http://www.w3.org/2000/svg">
<g clip-path="url(#clip0_228_6386)">
<path d="M8.41634 3.62771V3.03437C8.41634 2.26082 8.10905 1.51896 7.56207 0.971978C7.01509 0.424997 6.27322 0.117706 5.49967 0.117706C4.72613 0.117706 3.98426 0.424997 3.43728 0.971978C2.8903 1.51896 2.58301 2.26082 2.58301 3.03437V3.62771C2.21191 3.78967 1.89605 4.05626 1.67405 4.39488C1.45205 4.7335 1.33354 5.12947 1.33301 5.53437V8.03437C1.33367 8.5867 1.55338 9.11622 1.94393 9.50678C2.33449 9.89734 2.86401 10.117 3.41634 10.1177H7.58301C8.13534 10.117 8.66486 9.89734 9.05542 9.50678C9.44597 9.11622 9.66568 8.5867 9.66634 8.03437V5.53437C9.66581 5.12947 9.5473 4.7335 9.3253 4.39488C9.1033 4.05626 8.78744 3.78967 8.41634 3.62771ZM3.41634 3.03437C3.41634 2.48184 3.63583 1.95193 4.02654 1.56123C4.41724 1.17053 4.94714 0.95104 5.49967 0.95104C6.05221 0.95104 6.58211 1.17053 6.97281 1.56123C7.36351 1.95193 7.58301 2.48184 7.58301 3.03437V3.45104H3.41634V3.03437ZM8.83301 8.03437C8.83301 8.36589 8.70131 8.68384 8.46689 8.91826C8.23247 9.15268 7.91453 9.28437 7.58301 9.28437H3.41634C3.08482 9.28437 2.76688 9.15268 2.53246 8.91826C2.29804 8.68384 2.16634 8.36589 2.16634 8.03437V5.53437C2.16634 5.20285 2.29804 4.88491 2.53246 4.65049C2.76688 4.41607 3.08482 4.28437 3.41634 4.28437H7.58301C7.91453 4.28437 8.23247 4.41607 8.46689 4.65049C8.70131 4.88491 8.83301 5.20285 8.83301 5.53437V8.03437Z" fill="white"/>
<path d="M5.49967 5.95105C5.38917 5.95105 5.28319 5.99495 5.20505 6.07309C5.12691 6.15123 5.08301 6.25721 5.08301 6.36772V7.20105C5.08301 7.31156 5.12691 7.41754 5.20505 7.49568C5.28319 7.57382 5.38917 7.61772 5.49967 7.61772C5.61018 7.61772 5.71616 7.57382 5.7943 7.49568C5.87244 7.41754 5.91634 7.31156 5.91634 7.20105V6.36772C5.91634 6.25721 5.87244 6.15123 5.7943 6.07309C5.71616 5.99495 5.61018 5.95105 5.49967 5.95105Z" fill="white"/>
</g>
<defs>
<clipPath id="clip0_228_6386">
<rect width="10" height="10" fill="white" transform="translate(0.5 0.117706)"/>
</clipPath>
</defs>
</svg>
