<svg width="180" height="40" viewBox="0 0 180 40" fill="none" xmlns="http://www.w3.org/2000/svg">
<g clip-path="url(#clip0_114_648)">
<path d="M42.9507 31.2273V0.838257H47.7526C50.5381 0.838257 52.5751 1.0173 53.8639 1.37539C55.6932 1.85742 57.1484 2.75263 58.2293 4.06102C59.3102 5.36941 59.8506 6.91193 59.8506 8.6886C59.8506 9.84544 59.6012 10.8991 59.1023 11.8494C58.6173 12.7859 57.8205 13.6674 56.7118 14.4937C58.5687 15.3613 59.9269 16.4494 60.7861 17.7577C61.6453 19.0524 62.0749 20.588 62.0749 22.3647C62.0749 24.0725 61.6314 25.6287 60.7445 27.0336C59.8576 28.4384 58.7143 29.4919 57.3147 30.1943C55.915 30.8829 53.9817 31.2273 51.515 31.2273H42.9507ZM48.7712 6.35414V12.7583H50.0392C51.4527 12.7583 52.4989 12.4623 53.178 11.87C53.8709 11.2778 54.2174 10.4721 54.2174 9.45292C54.2174 8.50265 53.8917 7.75205 53.2403 7.20115C52.589 6.63647 51.5982 6.35414 50.2678 6.35414H48.7712ZM48.7712 17.9231V25.7114H50.2262C52.6375 25.7114 54.259 25.4084 55.0904 24.8024C55.9357 24.1964 56.3584 23.315 56.3584 22.1581C56.3584 20.8497 55.8665 19.8168 54.8826 19.0593C53.8986 18.3018 52.2634 17.9231 49.9768 17.9231H48.7712Z" fill="white"/>
<path d="M67.0015 8.75049H72.7387V19.5757C72.7387 21.6829 72.8842 23.1497 73.1752 23.976C73.4662 24.7886 73.9305 25.4221 74.568 25.8766C75.2193 26.3311 76.0161 26.5584 76.9585 26.5584C77.9008 26.5584 78.6977 26.338 79.349 25.8972C80.0142 25.4428 80.5062 24.7817 80.8249 23.914C81.0604 23.2667 81.1784 21.8826 81.1784 19.7617V8.75049H86.8735V18.2742C86.8735 22.1994 86.5622 24.885 85.9387 26.3311C85.1765 28.094 84.0535 29.4506 82.5714 30.4009C81.0884 31.3374 79.2034 31.8057 76.9169 31.8057C74.4363 31.8057 72.4269 31.2548 70.8887 30.153C69.3642 29.0512 68.2902 27.5156 67.6667 25.5461C67.2232 24.1826 67.0015 21.7035 67.0015 18.1089V8.75049Z" fill="white"/>
<path d="M90.0754 8.75049H95.8744L101.758 22.8604L108.243 8.75049H114.063L99.8862 39.4494H94.0249L98.6806 29.5539L90.0754 8.75049Z" fill="white"/>
<path d="M117.244 8.75053H122.939V11.3329C123.91 10.2724 124.983 9.48048 126.161 8.95715C127.353 8.4338 128.649 8.17212 130.048 8.17212C131.462 8.17212 132.737 8.51643 133.874 9.20504C135.01 9.89372 135.924 10.8991 136.618 12.2212C137.518 10.8991 138.619 9.89372 139.922 9.20504C141.239 8.51643 142.673 8.17212 144.225 8.17212C145.833 8.17212 147.246 8.54398 148.466 9.28767C149.685 10.0314 150.559 11.0024 151.085 12.2006C151.626 13.3988 151.896 15.3476 151.896 18.047V31.2273H146.179V19.8237C146.179 17.2758 145.861 15.5542 145.223 14.6589C144.585 13.75 143.629 13.2955 142.355 13.2955C141.384 13.2955 140.511 13.5709 139.735 14.1218C138.973 14.6728 138.405 15.4371 138.031 16.4149C137.657 17.379 137.47 18.9353 137.47 21.0838V31.2273H131.753V20.3401C131.753 18.3293 131.601 16.8763 131.296 15.9811C131.005 15.0721 130.562 14.3973 129.966 13.9565C129.37 13.5158 128.649 13.2955 127.803 13.2955C126.861 13.2955 126.002 13.5778 125.226 14.1425C124.463 14.6934 123.889 15.4715 123.501 16.4769C123.126 17.4823 122.939 19.0662 122.939 21.2284V31.2273H117.244V8.75053Z" fill="white"/>
<path d="M179.979 21.6209H161.749C162.012 23.2186 162.712 24.4926 163.849 25.4429C164.998 26.3793 166.461 26.8476 168.234 26.8476C170.355 26.8476 172.177 26.1108 173.702 24.6371L178.482 26.8683C177.291 28.5486 175.863 29.7949 174.2 30.6075C172.537 31.4063 170.563 31.8057 168.277 31.8057C164.728 31.8057 161.839 30.697 159.608 28.4797C157.377 26.2485 156.261 23.4596 156.261 20.1129C156.261 16.6835 157.369 13.8395 159.587 11.5808C161.818 9.30839 164.611 8.17212 167.964 8.17212C171.526 8.17212 174.422 9.30839 176.653 11.5808C178.884 13.8395 180 16.8282 180 20.5467L179.979 21.6209ZM174.284 17.1793C173.909 15.926 173.168 14.9068 172.06 14.1218C170.964 13.3368 169.69 12.9443 168.234 12.9443C166.655 12.9443 165.269 13.385 164.077 14.2664C163.329 14.8174 162.636 15.7883 161.998 17.1793H174.284Z" fill="white"/>
<path d="M42.8098 39.5H95.1332L98.1057 34.1818H42.8098V39.5Z" fill="white"/>
<path d="M109.403 8.77271H120.105V13.5H109.403V8.77271Z" fill="white"/>
<path d="M30.9181 0.5L19.0266 6.44512V33.317L30.9181 39.5V0.5Z" fill="#AB0000"/>
<path d="M13.0807 13.5L0 20.5288L13.0807 27.8V13.5Z" fill="#AB0000"/>
</g>
<defs>
<clipPath id="clip0_114_648">
<rect width="180" height="39" fill="white" transform="translate(0 0.5)"/>
</clipPath>
</defs>
</svg>
