<svg width="180" height="40" viewBox="0 0 180 40" fill="none" xmlns="http://www.w3.org/2000/svg">
<path d="M12.8837 31.4288H3.3078V4.41577H12.9628C15.68 4.41577 18.019 4.95656 19.9799 6.03813C21.9407 7.11091 23.4489 8.65413 24.504 10.6678C25.568 12.6815 26.1 15.0908 26.1 17.8959C26.1 20.7098 25.568 23.1279 24.504 25.1503C23.4489 27.1728 21.932 28.7248 19.9535 29.8063C17.9837 30.8879 15.6272 31.4288 12.8837 31.4288ZM9.01904 26.5353H12.6463C14.3346 26.5353 15.7547 26.2363 16.9066 25.6383C18.0673 25.0316 18.9379 24.0952 19.5182 22.8289C20.1073 21.5539 20.4019 19.9096 20.4019 17.8959C20.4019 15.8998 20.1073 14.2687 19.5182 13.0024C18.9379 11.7362 18.0717 10.8041 16.9199 10.2062C15.7679 9.60821 14.3477 9.30924 12.6595 9.30924H9.01904V26.5353ZM39.4582 31.8245C37.3742 31.8245 35.5803 31.4023 34.0766 30.5582C32.5817 29.7053 31.4299 28.5006 30.6209 26.9442C29.8119 25.379 29.4073 23.528 29.4073 21.3912C29.4073 19.3072 29.8119 17.4782 30.6209 15.9042C31.4299 14.3302 32.5686 13.1035 34.037 12.2242C35.5143 11.3449 37.2466 10.9052 39.2339 10.9052C40.5705 10.9052 41.8147 11.1207 42.9666 11.5515C44.1273 11.9736 45.1386 12.6111 46.0003 13.4641C46.8709 14.317 47.5479 15.3898 48.0316 16.6825C48.5152 17.9662 48.757 19.4699 48.757 21.1933V22.7366H31.6497V19.2545H43.4679C43.4679 18.4455 43.292 17.7288 42.9403 17.1045C42.5885 16.4802 42.1005 15.9922 41.4762 15.6405C40.8606 15.2799 40.144 15.0996 39.3262 15.0996C38.4733 15.0996 37.717 15.2975 37.0576 15.6932C36.4069 16.08 35.8969 16.6033 35.5275 17.2628C35.1582 17.9135 34.9692 18.6389 34.9603 19.439V22.7498C34.9603 23.7522 35.145 24.6183 35.5143 25.3482C35.8925 26.078 36.4245 26.6408 37.1103 27.0365C37.7962 27.4322 38.6096 27.63 39.5505 27.63C40.1747 27.63 40.7463 27.5422 41.2652 27.3662C41.7839 27.1903 42.228 26.9266 42.5973 26.5749C42.9666 26.2232 43.248 25.7923 43.4415 25.2822L48.6383 25.6252C48.3745 26.8739 47.8337 27.9642 47.0159 28.8963C46.207 29.8196 45.1606 30.5406 43.8767 31.0595C42.6017 31.5695 41.1289 31.8245 39.4582 31.8245ZM69.2806 16.9462L64.1365 17.2628C64.0486 16.823 63.8595 16.4275 63.5693 16.0756C63.2792 15.7152 62.8966 15.4293 62.4217 15.2183C61.9557 14.9985 61.3973 14.8886 60.7466 14.8886C59.8762 14.8886 59.1419 15.0732 58.5439 15.4426C57.946 15.803 57.647 16.2868 57.647 16.8935C57.647 17.377 57.8405 17.7859 58.2275 18.12C58.6143 18.4543 59.2782 18.7225 60.219 18.9248L63.8859 19.6633C65.8556 20.0678 67.324 20.7185 68.2913 21.6155C69.2586 22.5123 69.7422 23.6906 69.7422 25.1503C69.7422 26.4782 69.3509 27.6432 68.5683 28.6456C67.7945 29.6482 66.7305 30.4308 65.3763 30.9935C64.031 31.5475 62.4789 31.8245 60.7203 31.8245C58.0383 31.8245 55.9016 31.266 54.31 30.1493C52.7272 29.0238 51.7995 27.4938 51.5269 25.5592L57.0535 25.269C57.2206 26.0869 57.625 26.7112 58.267 27.142C58.9089 27.564 59.731 27.7752 60.7335 27.7752C61.7183 27.7752 62.5098 27.586 63.1076 27.208C63.7145 26.821 64.0222 26.3242 64.031 25.7175C64.0222 25.2075 63.8067 24.7898 63.3846 24.4645C62.9626 24.1303 62.3119 23.8753 61.4326 23.6995L57.924 23.0003C55.9456 22.6048 54.4726 21.9188 53.5055 20.9428C52.5469 19.9668 52.0677 18.7225 52.0677 17.21C52.0677 15.9086 52.4195 14.7875 53.1229 13.8466C53.8352 12.9057 54.8332 12.1802 56.117 11.6702C57.4096 11.1602 58.922 10.9052 60.6543 10.9052C63.2132 10.9052 65.2269 11.446 66.6953 12.5276C68.1726 13.6092 69.0343 15.082 69.2806 16.9462ZM84.0566 11.169V15.3898H71.8559V11.169H84.0566ZM74.6257 6.31511H80.2447V25.203C80.2447 25.7219 80.3239 26.1265 80.4822 26.4166C80.6405 26.6979 80.8602 26.8958 81.1416 27.0102C81.4317 27.1245 81.7659 27.1816 82.144 27.1816C82.4079 27.1816 82.6716 27.1596 82.9355 27.1156C83.1992 27.0629 83.4015 27.0233 83.5422 26.9969L84.4259 31.1782C84.1445 31.266 83.7489 31.3672 83.2387 31.4815C82.7287 31.6046 82.1089 31.6793 81.379 31.7058C80.0249 31.7585 78.8377 31.5782 77.8177 31.1649C76.8065 30.7516 76.0195 30.1098 75.4567 29.2392C74.894 28.3688 74.617 27.2695 74.6257 25.9418V6.31511ZM87.7167 31.4288V11.169H93.1642V14.7039H93.3753C93.7446 13.4465 94.3645 12.4968 95.235 11.8549C96.1056 11.2042 97.108 10.8788 98.2423 10.8788C98.5238 10.8788 98.8272 10.8964 99.1525 10.9316C99.4779 10.9668 99.7636 11.0151 100.01 11.0767V16.0625C99.746 15.9833 99.381 15.913 98.915 15.8515C98.449 15.7899 98.0225 15.759 97.6356 15.759C96.809 15.759 96.0705 15.9393 95.4197 16.2999C94.7777 16.6516 94.2678 17.144 93.8897 17.7772C93.5203 18.4103 93.3357 19.1402 93.3357 19.9668V31.4288H87.7167Z" fill="white"/>
<path d="M127.14 39.026C126.427 39.026 125.759 38.9689 125.135 38.8546C124.519 38.749 124.009 38.6127 123.605 38.4456L124.871 34.2513C125.53 34.4534 126.124 34.5634 126.652 34.581C127.188 34.5986 127.65 34.4754 128.037 34.2117C128.432 33.9479 128.753 33.4994 128.999 32.8663L129.329 32.0089L122.062 11.1688H127.971L132.165 26.0471H132.376L136.61 11.1688H142.559L134.684 33.6181C134.306 34.7084 133.792 35.6581 133.141 36.4671C132.499 37.2849 131.686 37.9136 130.701 38.3533C129.716 38.8017 128.529 39.026 127.14 39.026ZM154.014 31.8243C151.93 31.8243 150.137 31.4021 148.633 30.558C147.138 29.7051 145.986 28.5004 145.177 26.944C144.368 25.3789 143.964 23.5279 143.964 21.391C143.964 19.307 144.368 17.478 145.177 15.904C145.986 14.33 147.124 13.1034 148.593 12.224C150.07 11.3447 151.803 10.905 153.79 10.905C155.127 10.905 156.371 11.1205 157.523 11.5513C158.683 11.9734 159.694 12.6109 160.557 13.4639C161.427 14.3169 162.104 15.3896 162.587 16.6823C163.071 17.966 163.313 19.4697 163.313 21.1931V22.7364H146.206V19.2543H158.024C158.024 18.4453 157.848 17.7286 157.497 17.1043C157.144 16.48 156.657 15.992 156.033 15.6403C155.417 15.2797 154.7 15.0994 153.883 15.0994C153.03 15.0994 152.273 15.2973 151.614 15.693C150.963 16.0799 150.453 16.6031 150.084 17.2626C149.714 17.9133 149.526 18.6387 149.517 19.4389V22.7496C149.517 23.752 149.701 24.6181 150.07 25.348C150.448 26.0779 150.98 26.6406 151.667 27.0363C152.353 27.432 153.166 27.6299 154.107 27.6299C154.731 27.6299 155.303 27.542 155.821 27.366C156.34 27.1901 156.784 26.9264 157.153 26.5747C157.523 26.223 157.804 25.7921 157.997 25.282L163.194 25.625C162.93 26.8737 162.39 27.964 161.571 28.8961C160.763 29.8194 159.717 30.5404 158.433 31.0593C157.158 31.5693 155.686 31.8243 154.014 31.8243ZM166.98 31.4286V11.1688H172.427V14.7037H172.638C173.007 13.4463 173.627 12.4966 174.498 11.8547C175.368 11.204 176.371 10.8787 177.506 10.8787C177.787 10.8787 178.09 10.8962 178.416 10.9314C178.741 10.9666 179.027 11.0149 179.273 11.0765V16.0623C179.008 15.9831 178.644 15.9129 178.178 15.8513C177.713 15.7897 177.286 15.7589 176.898 15.7589C176.073 15.7589 175.334 15.9391 174.683 16.2997C174.041 16.6514 173.531 17.1439 173.153 17.777C172.784 18.4101 172.598 19.14 172.598 19.9666V31.4286H166.98Z" fill="white"/>
<path d="M115.961 27.857L111.429 25.1248L106.896 27.857L108.096 22.7034L104.1 19.2427L109.371 18.7927L111.429 13.9284L113.486 18.782L118.757 19.232L114.761 22.6927L115.961 27.857ZM111.429 10.7141C105.504 10.7141 100.714 15.5355 100.714 21.4284C100.714 24.27 101.843 26.9953 103.852 29.0045C104.847 29.9994 106.028 30.7887 107.328 31.3271C108.628 31.8655 110.022 32.1427 111.429 32.1427C114.27 32.1427 116.995 31.0138 119.005 29.0045C121.014 26.9953 122.143 24.27 122.143 21.4284C122.143 20.0214 121.866 18.6281 121.327 17.3283C120.789 16.0283 120 14.8471 119.005 13.8523C118.01 12.8573 116.829 12.0681 115.529 11.5297C114.229 10.9912 112.836 10.7141 111.429 10.7141Z" fill="#AB0000"/>
</svg>
