<svg width="16" height="16" viewBox="0 0 16 16" fill="none" xmlns="http://www.w3.org/2000/svg">
<path d="M4.41303 7.1937C5.37303 9.08037 6.9197 10.627 8.80636 11.587L10.273 10.1204C10.4597 9.9337 10.7197 9.88037 10.953 9.9537C11.6997 10.2004 12.4997 10.3337 13.333 10.3337C13.5098 10.3337 13.6794 10.4039 13.8044 10.529C13.9295 10.654 13.9997 10.8236 13.9997 11.0004V13.3337C13.9997 13.5105 13.9295 13.6801 13.8044 13.8051C13.6794 13.9301 13.5098 14.0004 13.333 14.0004C10.3272 14.0004 7.44456 12.8063 5.31915 10.6809C3.19374 8.5555 1.99969 5.67282 1.99969 2.66703C1.99969 2.49022 2.06993 2.32065 2.19496 2.19563C2.31998 2.0706 2.48955 2.00037 2.66636 2.00037H4.9997C5.17651 2.00037 5.34608 2.0706 5.4711 2.19563C5.59612 2.32065 5.66636 2.49022 5.66636 2.66703C5.66636 3.50037 5.7997 4.30037 6.04636 5.04703C6.1197 5.28037 6.06636 5.54037 5.8797 5.72703L4.41303 7.1937Z" fill="white"/>
</svg>
