<svg width="20" height="21" viewBox="0 0 20 21" fill="none" xmlns="http://www.w3.org/2000/svg">
<path d="M18.263 7.39018L3.3038 0.352676C2.4588 -0.0581575 1.46297 0.0835092 0.7638 0.711843C0.0629663 1.34268 -0.180367 2.32268 0.142966 3.20768C0.157133 3.24351 3.8188 10.121 3.8188 10.121C3.8188 10.121 0.224633 16.9968 0.212133 17.0318C-0.110367 17.9177 0.135466 18.896 0.8363 19.526C1.27047 19.9152 1.8188 20.116 2.37047 20.116C2.7113 20.116 3.05297 20.0393 3.3713 19.8835L18.2646 12.8518C19.3355 12.3493 20.0005 11.3027 19.9996 10.1202C19.9996 8.93684 19.3321 7.89018 18.263 7.39018ZM1.69297 2.59018C1.5913 2.24434 1.80797 2.01518 1.8788 1.95018C1.95297 1.88434 2.2238 1.68018 2.57713 1.85351C2.5813 1.85518 17.5555 8.89934 17.5555 8.89934C17.7546 8.99268 17.9205 9.12434 18.048 9.28434H5.26213L1.69297 2.59018ZM17.5546 11.3435L2.64797 18.3818C2.2938 18.556 2.0238 18.3527 1.94963 18.2852C1.87797 18.2218 1.6613 17.991 1.7638 17.6443L5.26547 10.951H18.053C17.9255 11.1135 17.7563 11.2485 17.5546 11.3435Z" fill="#AB0000"/>
</svg>
