<svg width="11" height="11" viewBox="0 0 11 11" fill="none" xmlns="http://www.w3.org/2000/svg">
<g clip-path="url(#clip0_228_6377)">
<path d="M7.58301 3.45104H3.41634V3.03437C3.41621 2.57245 3.5696 2.12359 3.85239 1.75836C4.13518 1.39312 4.53133 1.13223 4.97856 1.01669C5.42579 0.901145 5.89874 0.937513 6.32305 1.12007C6.74736 1.30263 7.09897 1.62103 7.32259 2.0252C7.34916 2.07305 7.38489 2.1152 7.42774 2.14925C7.4706 2.18329 7.51974 2.20855 7.57236 2.22361C7.62498 2.23866 7.68005 2.2432 7.73442 2.23696C7.78879 2.23073 7.84141 2.21385 7.88926 2.18729C7.93711 2.16072 7.97926 2.12499 8.0133 2.08214C8.04734 2.03928 8.07261 1.99014 8.08766 1.93752C8.10271 1.8849 8.10725 1.82983 8.10102 1.77546C8.09479 1.72108 8.07791 1.66847 8.05134 1.62062C7.73813 1.05492 7.24581 0.609337 6.65177 0.353917C6.05773 0.0984984 5.39566 0.0477244 4.76962 0.209577C4.14358 0.371429 3.58908 0.73673 3.19327 1.24806C2.79746 1.75939 2.58279 2.38775 2.58301 3.03437V3.6277C2.21191 3.78966 1.89605 4.05626 1.67405 4.39488C1.45205 4.7335 1.33354 5.12947 1.33301 5.53437V8.03437C1.33367 8.5867 1.55338 9.11622 1.94393 9.50678C2.33449 9.89734 2.86401 10.117 3.41634 10.1177H7.58301C8.13534 10.117 8.66486 9.89734 9.05542 9.50678C9.44597 9.11622 9.66568 8.5867 9.66634 8.03437V5.53437C9.66568 4.98204 9.44597 4.45252 9.05542 4.06196C8.66486 3.6714 8.13534 3.4517 7.58301 3.45104ZM8.83301 8.03437C8.83301 8.36589 8.70131 8.68383 8.46689 8.91825C8.23247 9.15267 7.91453 9.28437 7.58301 9.28437H3.41634C3.08482 9.28437 2.76688 9.15267 2.53246 8.91825C2.29804 8.68383 2.16634 8.36589 2.16634 8.03437V5.53437C2.16634 5.20285 2.29804 4.88491 2.53246 4.65049C2.76688 4.41607 3.08482 4.28437 3.41634 4.28437H7.58301C7.91453 4.28437 8.23247 4.41607 8.46689 4.65049C8.70131 4.88491 8.83301 5.20285 8.83301 5.53437V8.03437Z" fill="white"/>
<path d="M5.49967 5.95105C5.38917 5.95105 5.28319 5.99495 5.20505 6.07309C5.12691 6.15123 5.08301 6.25721 5.08301 6.36772V7.20105C5.08301 7.31156 5.12691 7.41754 5.20505 7.49568C5.28319 7.57382 5.38917 7.61772 5.49967 7.61772C5.61018 7.61772 5.71616 7.57382 5.7943 7.49568C5.87244 7.41754 5.91634 7.31156 5.91634 7.20105V6.36772C5.91634 6.25721 5.87244 6.15123 5.7943 6.07309C5.71616 5.99495 5.61018 5.95105 5.49967 5.95105Z" fill="white"/>
</g>
<defs>
<clipPath id="clip0_228_6377">
<rect width="10" height="10" fill="white" transform="translate(0.5 0.117706)"/>
</clipPath>
</defs>
</svg>
